<?xml version="1.0" encoding="iso-8859-1"?>
<!-- Generator: Adobe Illustrator 19.0.0, SVG Export Plug-In . SVG Version: 6.00 Build 0)  -->
<svg version="1.1" id="Layer_1" xmlns="http://www.w3.org/2000/svg" xmlns:xlink="http://www.w3.org/1999/xlink" x="0px" y="0px"
	 viewBox="0 0 212 212" style="enable-background:new 0 0 212 212;" xml:space="preserve">
<g>
	<g>
		<g>
			<path fill="#152256" stroke="#152256" stroke-linecap="round" stroke-linejoin="round" stroke-width="1" d="M185.961,0H26.039C14.988,0,6,8.953,6,19.961V128v16.039v43.68C6,201.109,17.094,212,30.73,212h150.54
				c13.637,0,24.73-10.891,24.73-24.281v-43.68V128V19.961C206,8.953,197.012,0,185.961,0z M198,187.719
				c0,8.976-7.504,16.281-16.73,16.281H30.73C21.504,204,14,196.695,14,187.719v-27.824c3.362,2.54,7.503,4.106,12.039,4.106
				h159.922c4.536,0,8.677-1.566,12.039-4.106V187.719z M198,128v16.039c0,6.594-5.402,11.961-12.039,11.961H26.039
				C19.402,156,14,150.633,14,144.039V128V19.961C14,13.367,19.402,8,26.039,8h159.922C192.598,8,198,13.367,198,19.961V128z"/>
			<path fill="#152256" stroke="#152256" stroke-linecap="round" stroke-linejoin="round" stroke-width="1" d="M108,56c-16.543,0-30,13.457-30,30c0,16.543,13.457,30,30,30c16.543,0,30-13.457,30-30C138,69.457,124.543,56,108,56z
				 M108,108c-12.129,0-22-9.871-22-22c0-12.129,9.871-22,22-22c12.129,0,22,9.871,22,22C130,98.129,120.129,108,108,108z"/>
			<rect fill="#152256" stroke="#152256" x="50" y="180" width="112.078" height="8"/>
		</g>
	</g>
</g>
<g>
</g>
<g>
</g>
<g>
</g>
<g>
</g>
<g>
</g>
<g>
</g>
<g>
</g>
<g>
</g>
<g>
</g>
<g>
</g>
<g>
</g>
<g>
</g>
<g>
</g>
<g>
</g>
<g>
</g>
</svg>
